<?xml version="1.0" encoding="utf-8"?>
<!-- Generator: Adobe Illustrator 27.4.1, SVG Export Plug-In . SVG Version: 6.00 Build 0)  -->
<svg version="1.1" id="Layer_1" xmlns="http://www.w3.org/2000/svg" xmlns:xlink="http://www.w3.org/1999/xlink" x="0px" y="0px"
	 viewBox="0 0 576 288" style="enable-background:new 0 0 576 288;" xml:space="preserve">
<style type="text/css">
	.st0{fill:#001A70;}
	.st1{fill:#87D810;}
</style>
<g>
	<path class="st0" d="M242.64,117.6v53.92h-8.47l-31.58-43.83v43.83h-7.7V117.6h9.48l30.58,42.68V117.6H242.64z"/>
	<path class="st0" d="M293.09,119.95c4.11,2.08,7.47,5.29,10.09,9.63c2.62,4.34,3.93,9.69,3.93,16.06c0,1.13-0.03,1.98-0.08,2.54
		h-45.99c0.51,3.23,1.67,6.14,3.47,8.7c1.8,2.57,4.07,4.57,6.82,6.01c2.75,1.44,5.74,2.16,8.97,2.16c3.85,0,7.23-0.92,10.13-2.77
		c2.9-1.85,5.2-4.39,6.89-7.63h8.09c-1.23,3.54-3.12,6.64-5.66,9.28c-2.54,2.65-5.5,4.7-8.86,6.16c-3.37,1.46-6.9,2.2-10.59,2.2
		c-5.03,0-9.64-1.22-13.83-3.66c-4.19-2.44-7.47-5.78-9.86-10.01c-2.39-4.24-3.58-8.92-3.58-14.06c0-5.13,1.17-9.82,3.5-14.06
		c2.34-4.24,5.59-7.57,9.75-10.01c4.16-2.44,8.81-3.66,13.94-3.66C284.69,116.83,288.98,117.87,293.09,119.95z M267.13,128.77
		c-3.39,3.13-5.44,7.19-6.16,12.17h38.06c-0.26-3.23-1.32-6.14-3.2-8.7s-4.22-4.57-7.05-6.01c-2.82-1.44-5.75-2.16-8.78-2.16
		C274.81,124.07,270.52,125.63,267.13,128.77z"/>
	<path class="st0" d="M351.25,171.52l-16.87-22.03l-16.79,22.03h-9.32l21.34-27.42l-20.41-26.5h9.48l15.87,20.64l15.71-20.64h9.4
		l-20.34,26.11l21.34,27.81H351.25z"/>
	<path class="st0" d="M415.42,117.6v53.92h-7.47v-10.25c-2.31,3.24-5.15,5.83-8.51,7.78c-3.37,1.95-6.97,2.93-10.82,2.93
		c-5.14,0-9.73-1.18-13.79-3.54s-7.24-5.62-9.55-9.78c-2.31-4.16-3.47-8.86-3.47-14.1c0-5.24,1.16-9.94,3.47-14.1
		c2.31-4.16,5.49-7.42,9.55-9.78c4.06-2.36,8.65-3.54,13.79-3.54c3.85,0,7.46,0.98,10.82,2.93c3.36,1.95,6.2,4.54,8.51,7.78V117.6
		H415.42z M398.7,162.28c2.88-1.74,5.14-4.16,6.78-7.24c1.64-3.08,2.46-6.57,2.46-10.48c0-3.9-0.82-7.4-2.46-10.48
		c-1.64-3.08-3.9-5.49-6.78-7.24c-2.88-1.74-6.14-2.62-9.78-2.62c-3.65,0-6.91,0.87-9.78,2.62c-2.88,1.75-5.14,4.16-6.78,7.24
		c-1.64,3.08-2.46,6.57-2.46,10.48c0,3.9,0.82,7.4,2.46,10.48c1.64,3.08,3.9,5.5,6.78,7.24c2.87,1.75,6.14,2.62,9.78,2.62
		C392.57,164.9,395.83,164.02,398.7,162.28z"/>
	<path class="st0" d="M465.49,164.13v7.39h-36.21V117.6h7.7v46.53H465.49z"/>
	<path class="st0" d="M481.28,117.6v53.92h-7.7V117.6H481.28z"/>
	<path class="st0" d="M498.19,167.63c-4.29-3.11-6.89-7.43-7.82-12.98h7.7c1.28,3.54,3.22,6.14,5.82,7.78
		c2.59,1.64,6.05,2.46,10.36,2.46c4.16,0,7.52-0.76,10.09-2.27c2.57-1.51,3.85-3.48,3.85-5.89c0-2.11-0.95-3.81-2.85-5.12
		c-1.9-1.31-5.03-2.4-9.4-3.27l-5.85-1.08c-6.11-1.08-10.68-2.94-13.71-5.58c-3.03-2.64-4.54-5.92-4.54-9.82
		c0-2.98,0.9-5.6,2.7-7.86c1.8-2.26,4.31-4.02,7.55-5.28c3.23-1.26,6.96-1.89,11.17-1.89c5.49,0,10.27,1.35,14.33,4.04
		s6.73,6.48,8.01,11.36h-8.09c-1.03-2.62-2.86-4.61-5.51-5.97c-2.65-1.36-5.69-2.04-9.13-2.04c-4.06,0-7.25,0.71-9.59,2.12
		c-2.34,1.41-3.5,3.35-3.5,5.82c0,2,0.94,3.62,2.81,4.85c1.87,1.23,4.84,2.21,8.9,2.93l5.85,1c6.47,1.08,11.22,2.93,14.25,5.55
		c3.03,2.62,4.54,5.98,4.54,10.09c0,3.08-0.94,5.8-2.81,8.17c-1.87,2.36-4.48,4.21-7.82,5.55c-3.34,1.33-7.16,2-11.48,2
		C507.76,172.29,502.48,170.74,498.19,167.63z"/>
	<g>
		<path class="st1" d="M83.41,139.72l28.7,0v-28.7c0-6.52-2.56-12.67-7.2-17.31c-4.64-4.64-10.79-7.2-17.31-7.2H58.9l0,28.7
			c0,6.52,2.55,12.67,7.2,17.31C70.74,137.16,76.89,139.72,83.41,139.72z M66.11,93.71h21.5c4.6,0,8.94,1.81,12.22,5.09
			c3.28,3.28,5.09,7.62,5.09,12.22v21.5h-21.5c-4.6,0-8.94-1.81-12.22-5.09c-3.28-3.28-5.09-7.62-5.09-12.22V93.71z"/>
		<path class="st1" d="M163.96,153.05c-4.64-4.64-10.79-7.2-17.31-7.2l-28.7,0v28.7c0,6.52,2.56,12.67,7.2,17.31
			c4.64,4.64,10.79,7.2,17.31,7.2h28.7l0-28.7C171.16,163.84,168.6,157.7,163.96,153.05z M163.95,191.87h-21.5
			c-4.6,0-8.94-1.81-12.22-5.09c-3.28-3.28-5.09-7.62-5.09-12.22v-21.5l21.5,0c4.6,0,8.94,1.81,12.22,5.09
			c3.28,3.28,5.09,7.62,5.09,12.22L163.95,191.87z"/>
		<path class="st1" d="M163.96,132.52c4.64-4.64,7.2-10.79,7.2-17.31l0-28.7h-28.7c-6.52,0-12.67,2.56-17.31,7.2
			c-4.64,4.64-7.2,10.79-7.2,17.31v28.7h28.7C153.17,139.72,159.32,137.16,163.96,132.52z M125.15,111.02
			c0-4.6,1.81-8.94,5.09-12.22c3.28-3.28,7.62-5.09,12.22-5.09l21.5,0v21.5c0,4.6-1.81,8.94-5.09,12.22
			c-3.28,3.28-7.62,5.09-12.22,5.09l-21.5,0L125.15,111.02z"/>
		<path class="st0" d="M112.11,145.86h-28.7c-5.62,0-10.96,1.91-15.3,5.4c-4.12-2.01-9.23-1.31-12.66,2.11
			c-4.32,4.32-4.32,11.32,0,15.63c4.32,4.32,11.32,4.32,15.63,0c3.41-3.41,4.11-8.48,2.15-12.59c2.95-2.17,6.47-3.36,10.17-3.36
			h16.57l-0.08,0.08l-28.18,28.18c-1.55-0.78-3.25-1.17-4.94-1.17c-0.25,0-0.49,0.02-0.73,0.04c-2.58,0.17-5.11,1.23-7.08,3.2
			c-0.04,0.04-0.08,0.09-0.12,0.14c-2.07,2.14-3.11,4.91-3.11,7.68c0,2.77,1.04,5.53,3.11,7.67l0.28,0.28
			c2.14,2.06,4.89,3.1,7.66,3.1c2.76,0,5.52-1.04,7.66-3.1c0.05-0.05,0.1-0.09,0.15-0.14c1.97-1.97,3.03-4.49,3.2-7.06
			c0.02-0.25,0.04-0.5,0.04-0.75c0-1.7-0.39-3.4-1.17-4.95l28.19-28.19l0.06-0.06l0,16.57c0,3.7-1.18,7.21-3.34,10.16
			c-4.12-2-9.22-1.3-12.64,2.12c-4.32,4.32-4.32,11.32,0,15.63c4.32,4.32,11.32,4.32,15.63,0c3.41-3.41,4.11-8.49,2.14-12.6
			c3.5-4.34,5.41-9.68,5.41-15.31L112.11,145.86z M66.16,164.07c-1.59,1.59-4.17,1.59-5.76,0c-1.59-1.59-1.59-4.17,0-5.76
			c1.59-1.59,4.17-1.59,5.76,0C67.75,159.9,67.75,162.47,66.16,164.07z M70.78,191.94c-0.15,0.78-0.52,1.53-1.12,2.13
			c-0.8,0.8-1.84,1.19-2.88,1.19c-1.04,0-2.08-0.4-2.88-1.19c-0.8-0.8-1.19-1.84-1.19-2.88s0.4-2.09,1.19-2.88
			c0.61-0.61,1.36-0.98,2.15-1.12c0.24-0.04,0.49-0.07,0.73-0.07c1.05,0,2.1,0.39,2.89,1.18l-0.01,0.01v0
			c0.8,0.8,1.19,1.84,1.19,2.88C70.85,191.44,70.83,191.69,70.78,191.94z M99.63,197.53c-1.59,1.59-4.17,1.59-5.76,0
			c-1.59-1.59-1.59-4.17,0-5.76c1.59-1.59,4.17-1.59,5.76,0C101.22,193.36,101.22,195.94,99.63,197.53z"/>
	</g>
</g>
</svg>
