<?xml version="1.0" encoding="utf-8"?>
<!-- Generator: Adobe Illustrator 27.4.1, SVG Export Plug-In . SVG Version: 6.00 Build 0)  -->
<svg version="1.1" id="Layer_1" xmlns="http://www.w3.org/2000/svg" xmlns:xlink="http://www.w3.org/1999/xlink" x="0px" y="0px"
	 viewBox="0 0 576 288" style="enable-background:new 0 0 576 288;" xml:space="preserve">
<style type="text/css">
	.st0{fill:#87D810;}
	.st1{fill:#001A70;}
</style>
<g>
	<path class="st0" d="M233.82,131.9l55,0v-55c0-12.5-4.9-24.29-13.79-33.18c-8.89-8.9-20.68-13.79-33.18-13.79h-55l0,55
		c0,12.5,4.9,24.28,13.79,33.18C209.53,127,221.31,131.9,233.82,131.9z M200.65,43.74h41.19c8.82,0,17.13,3.46,23.42,9.75
		c6.29,6.29,9.75,14.6,9.75,23.42v41.2h-41.2c-8.82,0-17.13-3.46-23.42-9.75c-6.29-6.29-9.75-14.6-9.75-23.42V43.74z"/>
	<path class="st0" d="M388.17,157.46c-8.89-8.89-20.67-13.79-33.18-13.79l-55,0v55c0,12.5,4.9,24.29,13.79,33.18
		c8.9,8.89,20.68,13.79,33.18,13.79h55l0-55C401.96,178.14,397.06,166.35,388.17,157.46z M388.16,231.83h-41.19
		c-8.82,0-17.13-3.46-23.42-9.75c-6.29-6.29-9.75-14.6-9.75-23.42v-41.2l41.2,0c8.82,0,17.13,3.46,23.42,9.75
		c6.29,6.29,9.75,14.6,9.75,23.42L388.16,231.83z"/>
	<path class="st0" d="M388.17,118.11c8.9-8.9,13.79-20.68,13.79-33.18l0-55h-55c-12.5,0-24.28,4.9-33.18,13.79
		c-8.89,8.89-13.79,20.67-13.79,33.18v55h55C367.49,131.9,379.27,127,388.17,118.11z M313.79,76.9c0-8.82,3.46-17.13,9.75-23.42
		c6.28-6.28,14.6-9.75,23.42-9.75l41.19,0v41.19c0,8.82-3.47,17.13-9.75,23.42c-6.29,6.29-14.6,9.75-23.42,9.75l-41.19,0
		L313.79,76.9z"/>
	<path class="st1" d="M288.81,143.67h-55c-10.77,0-21,3.65-29.31,10.35c-7.9-3.85-17.69-2.52-24.26,4.05
		c-8.27,8.27-8.27,21.69,0,29.96c8.27,8.27,21.69,8.27,29.96,0c6.53-6.53,7.88-16.24,4.11-24.12c5.65-4.15,12.4-6.43,19.5-6.43
		h31.75l-0.15,0.15l-54,54c-2.98-1.5-6.23-2.25-9.47-2.25c-0.47,0-0.94,0.04-1.41,0.07c-4.94,0.33-9.79,2.36-13.56,6.13
		c-0.08,0.08-0.16,0.18-0.24,0.26c-3.97,4.1-5.96,9.4-5.96,14.71c0,5.31,2,10.61,5.96,14.71l0.54,0.53
		c4.09,3.95,9.38,5.93,14.67,5.93c5.3,0,10.58-1.99,14.68-5.93c0.1-0.09,0.2-0.17,0.29-0.27c3.77-3.77,5.8-8.6,6.13-13.54
		c0.03-0.48,0.07-0.96,0.07-1.44c0-3.25-0.75-6.51-2.24-9.48l54.02-54.02l0.11-0.12l0,31.75c0,7.08-2.27,13.82-6.41,19.47
		c-7.89-3.83-17.67-2.49-24.22,4.06c-8.27,8.27-8.27,21.69,0,29.96s21.69,8.27,29.96,0c6.53-6.53,7.88-16.26,4.1-24.15
		c6.71-8.32,10.37-18.56,10.37-29.35L288.81,143.67z M200.75,178.56c-3.05,3.05-7.99,3.05-11.04,0c-3.05-3.05-3.05-7.99,0-11.04
		c3.05-3.05,7.99-3.05,11.04,0C203.79,170.57,203.79,175.51,200.75,178.56z M209.61,231.98c-0.28,1.5-0.99,2.93-2.15,4.09
		c-1.52,1.52-3.52,2.29-5.52,2.29c-2,0-4-0.76-5.52-2.29c-1.52-1.52-2.29-3.52-2.29-5.52s0.76-4,2.29-5.52
		c1.17-1.17,2.61-1.88,4.12-2.15c0.47-0.08,0.94-0.14,1.41-0.14c2.02,0,4.03,0.76,5.54,2.27l-0.02,0.02v0
		c1.53,1.52,2.29,3.52,2.29,5.52C209.74,231.03,209.7,231.51,209.61,231.98z M264.88,242.7c-3.05,3.05-7.99,3.05-11.04,0
		c-3.05-3.05-3.05-7.99,0-11.04c3.05-3.05,7.99-3.05,11.04,0C267.93,234.7,267.93,239.65,264.88,242.7z"/>
</g>
</svg>
